<?xml version="1.0" standalone="no"?><!DOCTYPE svg PUBLIC "-//W3C//DTD SVG 1.1//EN" "http://www.w3.org/Graphics/SVG/1.1/DTD/svg11.dtd"><svg t="1623742890382" class="icon" viewBox="0 0 1024 1024" version="1.1" xmlns="http://www.w3.org/2000/svg" p-id="1026" width="256" height="256" xmlns:xlink="http://www.w3.org/1999/xlink"><defs><style type="text/css"></style></defs><path d="M853.333333 228.266667c8.533333 0 14.933333 2.133333 19.2 8.533333s8.533333 12.8 8.533334 19.2v484.266667c0 8.533333-2.133333 14.933333-8.533334 19.2s-12.8 8.533333-19.2 8.533333c-8.533333 0-14.933333-2.133333-19.2-8.533333s-8.533333-12.8-8.533333-19.2v-484.266667c0-8.533333 2.133333-14.933333 8.533333-19.2s10.666667-8.533333 19.2-8.533333z m-85.333333 512l-384-113.066667h-21.333333l27.733333 157.866667c2.133333 6.4 0 10.666667-2.133333 10.666666s-8.533333 2.133333-17.066667 2.133334h-51.2c-8.533333 0-14.933333-2.133333-19.2-8.533334-6.4-4.266667-8.533333-12.8-10.666667-19.2-21.333333-128-32-194.133333-32-200.533333v-145.066667-12.8c0-2.133333 2.133333-6.4 4.266667-8.533333 2.133333-2.133333 6.4-4.266667 10.666667-4.266667h113.066666l384-142.933333-2.133333 484.266667z m-569.6-313.6v142.933333h-6.4c-2.133333 0-6.4-2.133333-12.8-4.266667s-12.8-4.266667-17.066667-8.533333c-4.266667-4.266667-8.533333-8.533333-12.8-17.066667-4.266667-8.533333-6.4-17.066667-6.4-27.733333v-27.733333c0-10.666667 2.133333-19.2 6.4-25.6 4.266667-8.533333 8.533333-12.8 14.933334-17.066667s10.666667-6.4 17.066666-8.533333 10.666667-4.266667 14.933334-4.266667l2.133333-2.133333z" p-id="1027" fill="#ffffff"></path></svg>